<?xml version="1.0" encoding="utf-8"?>
<svg version="1.1" xmlns:xlink="http://www.w3.org/1999/xlink" width="133px" height="62px" xmlns="http://www.w3.org/2000/svg">
  <g transform="matrix(1 0 0 1 -1553 -24 )">
    <path d="M 1554 29  A 4 4 0 0 1 1558 25 L 1681 25  A 4 4 0 0 1 1685 29 L 1685 81  A 4 4 0 0 1 1681 85 L 1558 85  A 4 4 0 0 1 1554 81 L 1554 29  Z " fill-rule="nonzero" fill="#ffffff" stroke="none" fill-opacity="0.00392156862745098" />
    <path d="M 1553.5 29  A 4.5 4.5 0 0 1 1558 24.5 L 1681 24.5  A 4.5 4.5 0 0 1 1685.5 29 L 1685.5 81  A 4.5 4.5 0 0 1 1681 85.5 L 1558 85.5  A 4.5 4.5 0 0 1 1553.5 81 L 1553.5 29  Z " stroke-width="1" stroke="#d7d7d7" fill="none" stroke-opacity="0.380392156862745" />
  </g>
</svg>