<?xml version="1.0" encoding="utf-8"?>
<svg version="1.1" xmlns:xlink="http://www.w3.org/1999/xlink" width="50px" height="33px" xmlns="http://www.w3.org/2000/svg">
  <g transform="matrix(1 0 0 1 -845 -203 )">
    <path d="M 1.01996527777778 31.990234375  C 0.339988425925926 31.3170572916667  0 30.5078125  0 29.5625  L 0 16  L 50 16  L 50 29.5625  C 50 30.5078125  49.6600115740741 31.3170572916667  48.9800347222222 31.990234375  C 48.3000578703704 32.6634114583333  47.4826388888889 33  46.5277777777778 33  L 3.47222222222222 33  C 2.51736111111111 33  1.69994212962963 32.6634114583333  1.01996527777778 31.990234375  Z M 22.2222222222222 24.75  L 13.8888888888889 24.75  L 13.8888888888889 27.5  L 22.2222222222222 27.5  L 22.2222222222222 24.75  Z M 11.1111111111111 24.75  L 5.55555555555556 24.75  L 5.55555555555556 27.5  L 11.1111111111111 27.5  L 11.1111111111111 24.75  Z M 3.47222222222222 0  L 46.5277777777778 0  C 47.4826388888889 0  48.3000578703704 0.336588541666663  48.9800347222222 1.009765625  C 49.6600115740741 1.68294270833333  50 2.4921875  50 3.4375  L 50 8.25  L 0 8.25  L 0 3.4375  C 0 2.4921875  0.339988425925926 1.68294270833333  1.01996527777778 1.009765625  C 1.69994212962963 0.336588541666663  2.51736111111111 0  3.47222222222222 0  Z " fill-rule="nonzero" fill="#000000" stroke="none" transform="matrix(1 0 0 1 845 203 )" />
  </g>
</svg>