<?xml version="1.0" encoding="utf-8"?>
<svg version="1.1" xmlns:xlink="http://www.w3.org/1999/xlink" width="51px" height="50px" xmlns="http://www.w3.org/2000/svg">
  <g transform="matrix(1 0 0 1 -111 -123 )">
    <path d="M 39.013671875 19.23828125  C 40.408203125 18.26171875  41.5703125 17.0789930555556  42.5 15.6901041666667  C 41.2604166666667 16.2326388888889  39.9212239583333 16.6015625  38.482421875 16.796875  C 39.9876302083333 15.9288194444444  41.0169270833333 14.6592881944444  41.5703125 12.98828125  C 40.1315104166667 13.8129340277778  38.6484375 14.3663194444444  37.12109375 14.6484375  C 35.7708333333333 13.2161458333333  34.0774739583333 12.5  32.041015625 12.5  C 30.115234375 12.5  28.4716796875 13.1673177083333  27.1103515625 14.501953125  C 25.7490234375 15.8365885416667  25.068359375 17.4479166666667  25.068359375 19.3359375  C 25.068359375 19.9652777777778  25.1236979166667 20.4861111111111  25.234375 20.8984375  C 22.37890625 20.7465277777778  19.7005208333333 20.0412326388889  17.19921875 18.7825520833333  C 14.6979166666667 17.5238715277778  12.5729166666667 15.8420138888889  10.82421875 13.7369791666667  C 10.1822916666667 14.8220486111111  9.861328125 15.9722222222222  9.861328125 17.1875  C 9.861328125 19.6614583333333  10.8684895833333 21.5603298611111  12.8828125 22.8841145833333  C 11.8424479166667 22.8624131944444  10.7356770833333 22.5802951388889  9.5625 22.0377604166667  L 9.5625 22.1028645833333  C 9.5625 23.73046875  10.1158854166667 25.1790364583333  11.22265625 26.4485677083333  C 12.3294270833333 27.7180989583333  13.6907552083333 28.5047743055556  15.306640625 28.80859375  C 14.6647135416667 28.9822048611111  14.1002604166667 29.0690104166667  13.61328125 29.0690104166667  C 13.3255208333333 29.0690104166667  12.8938802083333 29.0256076388889  12.318359375 28.9388020833333  C 12.783203125 30.3059895833333  13.6077473958333 31.4344618055555  14.7919921875 32.32421875  C 15.9762369791667 33.2139756944444  17.3209635416667 33.6697048611111  18.826171875 33.69140625  C 16.2584635416667 35.64453125  13.3697916666667 36.62109375  10.16015625 36.62109375  C 9.58463541666667 36.62109375  9.03125 36.5885416666667  8.5 36.5234375  C 11.7760416666667 38.5633680555556  15.33984375 39.5833333333333  19.19140625 39.5833333333333  C 21.6705729166667 39.5833333333333  23.9947916666667 39.1981336805556  26.1640625 38.427734375  C 28.3333333333333 37.6573350694444  30.1927083333333 36.6265190972222  31.7421875 35.3352864583333  C 33.2916666666667 34.0440538194444  34.6253255208333 32.5575086805556  35.7431640625 30.8756510416667  C 36.8610026041667 29.1937934027778  37.6910807291667 27.4359809027778  38.2333984375 25.6022135416667  C 38.7757161458333 23.7684461805556  39.046875 21.9401041666667  39.046875 20.1171875  C 39.046875 19.7265625  39.0358072916667 19.43359375  39.013671875 19.23828125  Z M 48.1943359375 2.75065104166667  C 50.0647786458333 4.58441840277777  51 6.79253472222222  51 9.375  L 51 40.625  C 51 43.2074652777778  50.0647786458333 45.4155815972222  48.1943359375 47.2493489583333  C 46.3238932291667 49.0831163194444  44.0716145833333 50  41.4375 50  L 9.5625 50  C 6.92838541666667 50  4.67610677083333 49.0831163194444  2.8056640625 47.2493489583333  C 0.935221354166667 45.4155815972222  0 43.2074652777778  0 40.625  L 0 9.375  C 0 6.79253472222222  0.935221354166667 4.58441840277777  2.8056640625 2.75065104166667  C 4.67610677083333 0.916883680555552  6.92838541666667 0  9.5625 0  L 41.4375 0  C 44.0716145833333 0  46.3238932291667 0.916883680555552  48.1943359375 2.75065104166667  Z " fill-rule="nonzero" fill="#ffffff" stroke="none" transform="matrix(1 0 0 1 111 123 )" />
  </g>
</svg>