<?xml version="1.0" encoding="utf-8"?>
<svg version="1.1" xmlns:xlink="http://www.w3.org/1999/xlink" width="45px" height="39px" xmlns="http://www.w3.org/2000/svg">
  <g transform="matrix(1 0 0 1 -705 -128 )">
    <path d="M 3.46153846153846 29.9464285714286  L 3.46153846153846 36.2142857142857  L 11.25 36.2142857142857  L 11.25 29.9464285714286  L 3.46153846153846 29.9464285714286  Z M 12.9807692307692 29.9464285714286  L 12.9807692307692 36.2142857142857  L 21.6346153846154 36.2142857142857  L 21.6346153846154 29.9464285714286  L 12.9807692307692 29.9464285714286  Z M 3.46153846153846 21.5892857142857  L 3.46153846153846 28.5535714285714  L 11.25 28.5535714285714  L 11.25 21.5892857142857  L 3.46153846153846 21.5892857142857  Z M 12.9807692307692 21.5892857142857  L 12.9807692307692 28.5535714285714  L 21.6346153846154 28.5535714285714  L 21.6346153846154 21.5892857142857  L 12.9807692307692 21.5892857142857  Z M 3.46153846153846 13.9285714285714  L 3.46153846153846 20.1964285714286  L 11.25 20.1964285714286  L 11.25 13.9285714285714  L 3.46153846153846 13.9285714285714  Z M 23.3653846153846 29.9464285714286  L 23.3653846153846 36.2142857142857  L 32.0192307692308 36.2142857142857  L 32.0192307692308 29.9464285714286  L 23.3653846153846 29.9464285714286  Z M 12.9807692307692 13.9285714285714  L 12.9807692307692 20.1964285714286  L 21.6346153846154 20.1964285714286  L 21.6346153846154 13.9285714285714  L 12.9807692307692 13.9285714285714  Z M 33.75 29.9464285714286  L 33.75 36.2142857142857  L 41.5384615384615 36.2142857142857  L 41.5384615384615 29.9464285714286  L 33.75 29.9464285714286  Z M 23.3653846153846 21.5892857142857  L 23.3653846153846 28.5535714285714  L 32.0192307692308 28.5535714285714  L 32.0192307692308 21.5892857142857  L 23.3653846153846 21.5892857142857  Z M 13.5892427884615 10.2396763392857  C 13.7605168269231 10.1018415178571  13.8461538461538 9.93861607142857  13.8461538461538 9.75  L 13.8461538461538 3.48214285714286  C 13.8461538461538 3.29352678571429  13.7605168269231 3.13030133928571  13.5892427884615 2.99246651785714  C 13.41796875 2.85463169642857  13.2151442307692 2.78571428571428  12.9807692307692 2.78571428571428  L 11.25 2.78571428571428  C 11.015625 2.78571428571428  10.8128004807692 2.85463169642857  10.6415264423077 2.99246651785714  C 10.4702524038462 3.13030133928571  10.3846153846154 3.29352678571429  10.3846153846154 3.48214285714286  L 10.3846153846154 9.75  C 10.3846153846154 9.93861607142857  10.4702524038462 10.1018415178571  10.6415264423077 10.2396763392857  C 10.8128004807692 10.3775111607143  11.015625 10.4464285714286  11.25 10.4464285714286  L 12.9807692307692 10.4464285714286  C 13.2151442307692 10.4464285714286  13.41796875 10.3775111607143  13.5892427884615 10.2396763392857  Z M 33.75 21.5892857142857  L 33.75 28.5535714285714  L 41.5384615384615 28.5535714285714  L 41.5384615384615 21.5892857142857  L 33.75 21.5892857142857  Z M 23.3653846153846 13.9285714285714  L 23.3653846153846 20.1964285714286  L 32.0192307692308 20.1964285714286  L 32.0192307692308 13.9285714285714  L 23.3653846153846 13.9285714285714  Z M 33.75 13.9285714285714  L 33.75 20.1964285714286  L 41.5384615384615 20.1964285714286  L 41.5384615384615 13.9285714285714  L 33.75 13.9285714285714  Z M 34.3584735576923 10.2396763392857  C 34.5297475961539 10.1018415178571  34.6153846153846 9.93861607142857  34.6153846153846 9.75  L 34.6153846153846 3.48214285714286  C 34.6153846153846 3.29352678571429  34.5297475961539 3.13030133928571  34.3584735576923 2.99246651785714  C 34.1871995192308 2.85463169642857  33.984375 2.78571428571428  33.75 2.78571428571428  L 32.0192307692308 2.78571428571428  C 31.7848557692308 2.78571428571428  31.58203125 2.85463169642857  31.4107572115385 2.99246651785714  C 31.2394831730769 3.13030133928571  31.1538461538462 3.29352678571429  31.1538461538462 3.48214285714286  L 31.1538461538462 9.75  C 31.1538461538462 9.93861607142857  31.2394831730769 10.1018415178571  31.4107572115385 10.2396763392857  C 31.58203125 10.3775111607143  31.7848557692308 10.4464285714286  32.0192307692308 10.4464285714286  L 33.75 10.4464285714286  C 33.984375 10.4464285714286  34.1871995192308 10.3775111607143  34.3584735576923 10.2396763392857  Z M 43.9723557692308 6.3984375  C 44.6574519230769 6.94977678571429  45 7.60267857142857  45 8.35714285714286  L 45 36.2142857142857  C 45 36.96875  44.6574519230769 37.6216517857143  43.9723557692308 38.1729910714286  C 43.2872596153846 38.7243303571429  42.4759615384615 39  41.5384615384615 39  L 3.46153846153846 39  C 2.52403846153846 39  1.71274038461538 38.7243303571429  1.02764423076923 38.1729910714286  C 0.342548076923077 37.6216517857143  0 36.96875  0 36.2142857142857  L 0 8.35714285714286  C 0 7.60267857142857  0.342548076923077 6.94977678571429  1.02764423076923 6.3984375  C 1.71274038461538 5.84709821428571  2.52403846153846 5.57142857142857  3.46153846153846 5.57142857142857  L 6.92307692307692 5.57142857142857  L 6.92307692307692 3.48214285714286  C 6.92307692307692 2.52455357142857  7.34675480769231 1.70479910714285  8.19411057692308 1.02287946428572  C 9.04146634615385 0.340959821428572  10.0600961538462 0  11.25 0  L 12.9807692307692 0  C 14.1706730769231 0  15.1893028846154 0.340959821428572  16.0366586538462 1.02287946428572  C 16.8840144230769 1.70479910714285  17.3076923076923 2.52455357142857  17.3076923076923 3.48214285714286  L 17.3076923076923 6  L 27.6923076923077 6  L 27.6923076923077 3.48214285714286  C 27.6923076923077 2.52455357142857  28.1159855769231 1.70479910714285  28.9633413461538 1.02287946428572  C 29.8106971153846 0.340959821428572  30.8293269230769 0  32.0192307692308 0  L 33.75 0  C 34.9399038461538 0  35.9585336538462 0.340959821428572  36.8058894230769 1.02287946428572  C 37.6532451923077 1.70479910714285  38.0769230769231 2.52455357142857  38.0769230769231 3.48214285714286  L 38.0769230769231 5.57142857142857  L 41.5384615384615 5.57142857142857  C 42.4759615384615 5.57142857142857  43.2872596153846 5.84709821428571  43.9723557692308 6.3984375  Z " fill-rule="nonzero" fill="#8c8c8c" stroke="none" transform="matrix(1 0 0 1 705 128 )" />
  </g>
</svg>