<?xml version="1.0" encoding="utf-8"?>
<svg version="1.1" xmlns:xlink="http://www.w3.org/1999/xlink" width="292px" height="314px" xmlns="http://www.w3.org/2000/svg">
  <g transform="matrix(1 0 0 1 -1124 -262 )">
    <path d="M 204.008928571429 276.239397321429  C 221.933035714286 266.018043154762  236.652529761905 252.146205357143  248.167410714286 234.623883928571  C 245.777529761905 216.517485119048  241.024925595238 201.477492559524  233.909598214286 189.50390625  C 226.794270833333 177.530319940476  216.773065476191 170.60900297619  203.845982142857 168.739955357143  C 196.567708333333 177.384300595238  187.904389880952 184.130394345238  177.856026785714 188.978236607143  C 167.807663690476 193.826078869048  157.188988095238 196.25  146 196.25  C 134.811011904762 196.25  124.192336309524 193.826078869048  114.143973214286 188.978236607143  C 104.095610119048 184.130394345238  95.4322916666667 177.384300595238  88.1540178571429 168.739955357143  C 75.2269345238095 170.60900297619  65.2057291666667 177.530319940476  58.0904017857143 189.50390625  C 50.9750744047619 201.477492559524  46.2224702380952 216.517485119048  43.8325892857143 234.623883928571  C 55.3474702380952 252.146205357143  70.0669642857143 266.018043154762  87.9910714285714 276.239397321429  C 105.915178571429 286.460751488095  125.251488095238 291.571428571429  146 291.571428571429  C 166.748511904762 291.571428571429  186.084821428571 286.460751488095  204.008928571429 276.239397321429  Z M 190.239955357143 159.715959821429  C 202.4609375 146.57421875  208.571428571429 130.716517857143  208.571428571429 112.142857142857  C 208.571428571429 93.5691964285714  202.4609375 77.7114955357143  190.239955357143 64.5697544642857  C 178.018973214286 51.4280133928571  163.272321428571 44.8571428571429  146 44.8571428571429  C 128.727678571429 44.8571428571429  113.981026785714 51.4280133928571  101.760044642857 64.5697544642857  C 89.5390625 77.7114955357143  83.4285714285714 93.5691964285714  83.4285714285714 112.142857142857  C 83.4285714285714 130.716517857143  89.5390625 146.57421875  101.760044642857 159.715959821429  C 113.981026785714 172.857700892857  128.727678571429 179.428571428571  146 179.428571428571  C 163.272321428571 179.428571428571  178.018973214286 172.857700892857  190.239955357143 159.715959821429  Z M 280.430803571429 96.0223214285714  C 288.143601190476 115.41369047619  292 135.739583333333  292 157  C 292 178.260416666667  288.143601190476 198.557105654762  280.430803571429 217.890066964286  C 272.718005952381 237.22302827381  262.370907738095 253.927641369048  249.389508928571 268.00390625  C 236.408110119048 282.080171130952  220.901041666667 293.26525297619  202.868303571429 301.559151785714  C 184.835565476191 309.853050595238  165.879464285714 314  146 314  C 126.229166666667 314  107.327380952381 309.853050595238  89.2946428571429 301.559151785714  C 71.2619047619048 293.26525297619  55.7276785714286 282.109375  42.6919642857143 268.091517857143  C 29.65625 254.073660714286  19.281994047619 237.369047619048  11.5691964285714 217.977678571429  C 3.85639880952381 198.58630952381  0 178.260416666667  0 157  C 0 135.739583333333  3.85639880952381 115.41369047619  11.5691964285714 96.0223214285714  C 19.281994047619 76.6309523809524  29.65625 59.9263392857143  42.6919642857143 45.9084821428571  C 55.7276785714286 31.890625  71.2619047619048 20.7347470238095  89.2946428571429 12.4408482142857  C 107.327380952381 4.1469494047619  126.229166666667 0  146 0  C 165.770833333333 0  184.672619047619 4.1469494047619  202.705357142857 12.4408482142857  C 220.738095238095 20.7347470238095  236.272321428571 31.890625  249.308035714286 45.9084821428571  C 262.34375 59.9263392857143  272.718005952381 76.6309523809524  280.430803571429 96.0223214285714  Z " fill-rule="nonzero" fill="#000000" stroke="none" transform="matrix(1 0 0 1 1124 262 )" />
  </g>
</svg>