<?xml version="1.0" encoding="utf-8"?>
<svg version="1.1" xmlns:xlink="http://www.w3.org/1999/xlink" width="118px" height="32px" xmlns="http://www.w3.org/2000/svg">
  <defs>
    <filter x="55px" y="890px" width="118px" height="32px" filterUnits="userSpaceOnUse" id="filter1">
      <feOffset dx="1" dy="1" in="SourceAlpha" result="shadowOffsetInner" />
      <feGaussianBlur stdDeviation="2.5" in="shadowOffsetInner" result="shadowGaussian" />
      <feComposite in2="shadowGaussian" operator="atop" in="SourceAlpha" result="shadowComposite" />
      <feColorMatrix type="matrix" values="0 0 0 0 0  0 0 0 0 0  0 0 0 0 0  0 0 0 0.698039215686274 0  " in="shadowComposite" />
    </filter>
    <g id="widget2">
      <path d="M 113 894  C 143.24 894  167 898.84  167 905  C 167 911.16  143.24 916  113 916  C 82.76 916  59 911.16  59 905  C 59 898.84  82.76 894  113 894  Z " fill-rule="nonzero" fill="#027db4" stroke="none" fill-opacity="0.803921568627451" />
      <path d="M 113 894.5  C 142.96 894.5  166.5 899.12  166.5 905  C 166.5 910.88  142.96 915.5  113 915.5  C 83.04 915.5  59.5 910.88  59.5 905  C 59.5 899.12  83.04 894.5  113 894.5  Z " stroke-width="1" stroke="#027db4" fill="none" />
    </g>
  </defs>
  <g transform="matrix(1 0 0 1 -55 -890 )">
    <use xlink:href="#widget2" filter="url(#filter1)" />
    <use xlink:href="#widget2" />
  </g>
</svg>