<?xml version="1.0" encoding="utf-8"?>
<svg version="1.1" xmlns:xlink="http://www.w3.org/1999/xlink" width="140px" height="57px" xmlns="http://www.w3.org/2000/svg">
  <g transform="matrix(1 0 0 1 -89 -1150 )">
    <path d="M 90 1155  A 4 4 0 0 1 94 1151 L 224 1151  A 4 4 0 0 1 228 1155 L 228 1202  A 4 4 0 0 1 224 1206 L 94 1206  A 4 4 0 0 1 90 1202 L 90 1155  Z " fill-rule="nonzero" fill="#282727" stroke="none" />
    <path d="M 89.5 1155  A 4.5 4.5 0 0 1 94 1150.5 L 224 1150.5  A 4.5 4.5 0 0 1 228.5 1155 L 228.5 1202  A 4.5 4.5 0 0 1 224 1206.5 L 94 1206.5  A 4.5 4.5 0 0 1 89.5 1202 L 89.5 1155  Z " stroke-width="1" stroke-dasharray="17,8" stroke="#ffffff" fill="none" stroke-opacity="0.611764705882353" stroke-dashoffset="0.5" />
  </g>
</svg>