<?xml version="1.0" encoding="utf-8"?>
<svg version="1.1" xmlns:xlink="http://www.w3.org/1999/xlink" width="177px" height="56px" xmlns="http://www.w3.org/2000/svg">
  <g transform="matrix(1 0 0 1 -719 -294 )">
    <path d="M 719.5 299  A 4.5 4.5 0 0 1 724 294.5 L 891 294.5  A 4.5 4.5 0 0 1 895.5 299 L 895.5 345  A 4.5 4.5 0 0 1 891 349.5 L 724 349.5  A 4.5 4.5 0 0 1 719.5 345 L 719.5 299  Z " fill-rule="nonzero" fill="#ffffff" stroke="none" />
    <path d="M 719.5 299  A 4.5 4.5 0 0 1 724 294.5 L 891 294.5  A 4.5 4.5 0 0 1 895.5 299 L 895.5 345  A 4.5 4.5 0 0 1 891 349.5 L 724 349.5  A 4.5 4.5 0 0 1 719.5 345 L 719.5 299  Z " stroke-width="1" stroke="#797979" fill="none" />
  </g>
</svg>